<svg width="86" height="86" fill="none" xmlns="http://www.w3.org/2000/svg"><circle cx="43" cy="43" r="43" fill="#96A9C6"/><path fill-rule="evenodd" clip-rule="evenodd" d="M27 43c0-8.836 7.164-16 16-16 8.838 0 16 7.164 16 16s-7.162 16-16 16c-8.836 0-16-7.164-16-16Zm16.953 7.736c1.486-.156 2.623-.675 3.41-1.558.787-.881 1.182-1.983 1.182-3.305 0-.861-.191-1.613-.572-2.258a4.16 4.16 0 0 0-1.533-1.513c-.64-.366-1.522-.754-2.647-1.164-1.023-.377-1.693-.692-2.004-.946-.312-.256-.469-.62-.469-1.097 0-.467.162-.866.487-1.194.322-.328.752-.492 1.287-.492 1.066 0 1.851.734 2.361 2.203l2.61-1.07c-.623-2.143-1.995-3.34-4.112-3.594V33H42.06v1.748c-1.403.197-2.43.738-3.082 1.623a4.927 4.927 0 0 0-.98 2.992c0 .844.183 1.586.548 2.223a4.032 4.032 0 0 0 1.428 1.48c.586.356 1.4.711 2.441 1.073 1.158.41 1.906.748 2.242 1.015.336.266.504.658.504 1.176 0 .5-.168.926-.504 1.28-.336.353-.863.529-1.576.529-1.525 0-2.424-.825-2.695-2.475l-2.93.764c.592 2.625 2.125 4.066 4.604 4.32V53h1.894v-2.264Z" fill="#fff"/></svg>