<svg width="112" height="18" fill="none" xmlns="http://www.w3.org/2000/svg"><path fill-rule="evenodd" clip-rule="evenodd" d="M33.83 13.508c-.654-.287-1.3-.61-1.935-.97L30 15.421c.665.38 1.389.73 2.17 1.048.781.318 1.604.59 2.467.819a21.58 21.58 0 0 0 2.709.527c.942.123 1.906.185 2.893.185 1.496 0 2.853-.14 4.071-.42 1.219-.28 2.26-.692 3.124-1.234.863-.542 1.529-1.208 1.996-1.996.467-.79.7-1.688.7-2.698 0-.755-.138-1.437-.414-2.046a4.19 4.19 0 0 0-1.223-1.56c-.538-.43-1.205-.76-2.001-.992-.797-.232-1.71-.347-2.742-.347-.546 0-1.109.028-1.688.084-.58.056-1.148.117-1.705.185l-.816.096-.776.089c-.505.056-.952.084-1.34.084-.965 0-1.683-.166-2.154-.5-.471-.332-.706-.76-.706-1.283 0-.27.072-.54.218-.813.146-.273.406-.52.78-.74.373-.221.876-.402 1.508-.545.632-.142 1.437-.213 2.417-.213.688 0 1.362.04 2.024.118.662.079 1.303.185 1.923.32.621.134 1.215.293 1.784.476.568.184 1.099.384 1.592.6l1.56-2.87a17.967 17.967 0 0 0-1.941-.735C45.735.84 45.01.65 44.26.493A23.94 23.94 0 0 0 41.944.13 21.924 21.924 0 0 0 39.578 0c-1.085 0-2.05.077-2.9.23-.848.153-1.596.364-2.242.634a6.683 6.683 0 0 0-1.655.958c-.456.37-.828.77-1.116 1.2-.287.43-.497.88-.628 1.352-.13.47-.196.946-.196 1.424 0 .808.165 1.514.494 2.12.329.605.771 1.11 1.329 1.514a5.981 5.981 0 0 0 1.917.908 8.347 8.347 0 0 0 2.26.303c.471 0 .974-.032 1.508-.095a97.12 97.12 0 0 0 1.627-.208l.82-.108.812-.1c.538-.063 1.05-.095 1.536-.095 1.107 0 1.925.185 2.456.555.53.37.796.873.796 1.509 0 .396-.106.762-.32 1.099-.212.337-.553.626-1.02.87-.467.242-1.07.433-1.811.571-.74.138-1.637.208-2.692.208-.874 0-1.699-.053-2.473-.157a16.126 16.126 0 0 1-2.215-.455 15.458 15.458 0 0 1-2.035-.729ZM0 .224h3.578v17.53H0V.223Zm8.086 0h3.555l10.923 5.72V.224h3.556v17.53h-3.556V9.711L11.641 4.026v13.727H8.086V.224Zm45.297 0h3.555V9.88c0 .793.109 1.498.326 2.114.216.617.54 1.139.97 1.565.43.426.962.75 1.598.97.635.22 1.376.33 2.22.33.838 0 1.576-.11 2.215-.33.64-.22 1.174-.544 1.604-.97.43-.426.753-.948.97-1.565.217-.616.325-1.321.325-2.114V.224h3.556v10.082c0 1.152-.195 2.199-.584 3.14a6.667 6.667 0 0 1-1.693 2.423c-.74.673-1.647 1.193-2.72 1.559-1.073.366-2.297.55-3.673.55-1.375 0-2.6-.184-3.673-.55-1.072-.366-1.979-.886-2.72-1.559a6.666 6.666 0 0 1-1.693-2.422c-.388-.942-.583-1.99-.583-3.14V.223Zm30.583 0h-8.915v17.53h3.555v-4.991l5.484.01 3.297 4.98h4.351l-3.813-5.607a6.676 6.676 0 0 0 1.739-.96 5.526 5.526 0 0 0 1.228-1.317 5.515 5.515 0 0 0 .723-1.62 7.154 7.154 0 0 0 .236-1.856c0-.965-.16-1.829-.477-2.591a4.906 4.906 0 0 0-1.453-1.94c-.65-.531-1.469-.937-2.456-1.217-.987-.28-2.153-.42-3.499-.42Zm.09 9.466c.673 0 1.262-.079 1.766-.236.505-.157.927-.377 1.268-.661.34-.285.594-.63.762-1.038.169-.407.253-.862.253-1.362 0-.98-.337-1.737-1.01-2.271-.673-.535-1.686-.802-3.039-.802h-5.45v6.37h5.45ZM110.983.224H96.056v17.53h15.163v-3.107H99.611V9.768h10.071V6.841h-10.07V3.342h11.371V.224Z" fill="#2C2830"/></svg>