<svg width="434" height="250" fill="none" xmlns="http://www.w3.org/2000/svg"><g clip-rule="evenodd" stroke="#9E96C6"><path d="M374.872-183.487c-83.088-26.03-168.523-69.446-255.99 9.854C31.415-94.333-23.575-24.865 11.936 65.016c35.51 89.881 180.463 33.898 222.579 114.23 42.117 80.332-50.423 153.241-10.527 224.736 39.896 71.496 70.573 117.318 198.785 71.859S539.164 314.714 636.664 246.98c97.499-67.734 202.987-169.134 58.221-350.07-144.766-180.935-236.925-54.367-320.013-80.397Z"/><path d="M384.985-142.161c-67.557-21.138-137.022-56.395-208.139 8.002C105.73-69.762 61.019-13.351 89.892 59.638c28.873 72.99 146.729 27.527 180.973 92.762 34.243 65.235-40.998 124.441-8.56 182.5 32.439 58.059 57.381 95.269 161.627 58.354 104.246-36.916 94.634-130.846 173.908-185.85C677.114 152.4 762.883 70.057 645.178-76.874c-117.705-146.93-192.637-44.149-260.193-65.287Z"/><path d="M404.804-113.491c-54.849-17.231-111.247-45.973-168.987 6.524-57.739 52.496-94.04 98.482-70.598 157.983 23.442 59.501 119.129 22.44 146.932 75.62 27.802 53.179-33.286 101.444-6.95 148.773 26.337 47.329 46.587 77.663 131.224 47.57 84.637-30.094 76.834-106.665 141.196-151.504 64.362-44.839 133.998-111.966 38.434-231.743-95.565-119.778-156.402-35.99-211.251-53.223Z"/><path d="M424.91-80.123c-44.205-13.836-89.659-36.915-136.194 5.238-46.534 42.153-75.79 79.079-56.898 126.856 18.893 47.777 96.011 18.018 118.418 60.719 22.407 42.702-26.826 81.457-5.6 119.46 21.225 38.004 37.546 62.361 105.758 38.197 68.213-24.164 61.923-85.648 113.796-121.652 51.872-36.005 107.994-89.905 30.975-186.082-77.019-96.177-126.05-28.9-170.255-42.736Z"/><path d="M430.256-58.56c-36.06-11.317-73.137-30.194-111.097 4.285-37.959 34.478-61.824 64.681-46.413 103.76 15.411 39.079 78.319 14.738 96.597 49.665 18.278 34.928-21.883 66.627-4.569 97.712 17.314 31.085 30.628 51.007 86.27 31.243 55.642-19.765 50.512-70.056 92.826-99.505 42.313-29.45 88.093-73.537 25.267-152.204-62.826-78.668-102.822-23.638-138.881-34.956Z"/><path d="M440.955-42.498c-29.325-9.164-59.479-24.448-90.35 3.469-30.87 27.916-50.278 52.37-37.745 84.012 12.533 31.641 63.693 11.933 78.557 40.213 14.865 28.28-17.796 53.946-3.715 79.115 14.081 25.169 24.908 41.299 70.159 25.296 45.251-16.003 41.079-56.722 75.491-80.566 34.411-23.845 71.642-59.541 20.549-123.237-51.094-63.695-83.621-19.139-112.946-28.302Z"/></g></svg>